<svg width="232" height="402" viewBox="0 0 232 402" fill="none" xmlns="http://www.w3.org/2000/svg">
<mask id="path-1-inside-1_1_11" fill="white">
<path d="M11.3871 341C52.6655 425.001 185.207 422.188 225 325C229.756 313.383 231.52 299.458 230.975 284C213.316 297.667 165.4 321 115 305C64.6001 289 24.9247 322.333 11.3871 341Z"/>
<path d="M115 0C115 0 -24.6128 230.936 4.99999 325C6.77641 330.643 8.91855 335.977 11.3871 341C24.9247 322.333 64.6001 289 115 305C165.4 321 213.316 297.667 230.975 284C227.238 178.02 115 0 115 0Z"/>
</mask>
<path d="M27.5775 352.742C38.8438 337.207 70.5314 311.867 108.948 324.062L121.052 285.938C58.6687 266.133 11.0057 307.46 -4.80335 329.258L27.5775 352.742ZM108.948 324.062C167.933 342.788 222.647 315.736 243.216 299.816L218.734 268.184C203.986 279.598 162.867 299.212 121.052 285.938L108.948 324.062ZM115 0L148.836 -21.3331L114.286 -76.1341L80.7693 -20.6943L115 0ZM225 325L187.983 309.843L225 325ZM4.99999 325L43.154 312.989L4.99999 325ZM11.3871 341L-24.5126 358.641L11.3871 341ZM230.975 284L270.95 282.59L270.95 282.59L230.975 284ZM43.154 312.989C39.2651 300.636 39.9142 277.795 48.4461 244.451C56.5739 212.686 70.2462 177.329 85.3858 143.61C100.436 110.091 116.453 79.2512 128.754 56.7252C134.89 45.4903 140.064 36.3904 143.682 30.1382C145.49 27.0135 146.906 24.6041 147.856 22.9995C148.331 22.1973 148.69 21.5967 148.922 21.2086C149.038 21.0146 149.123 20.8738 149.175 20.7876C149.201 20.7445 149.218 20.7151 149.228 20.6995C149.232 20.6917 149.235 20.6873 149.236 20.6865C149.236 20.686 149.235 20.688 149.235 20.6878C149.233 20.6906 149.231 20.6943 115 0C80.7693 -20.6943 80.766 -20.6888 80.7621 -20.6825C80.7601 -20.6792 80.7557 -20.6719 80.7518 -20.6654C80.7438 -20.6522 80.7337 -20.6355 80.7215 -20.6153C80.6972 -20.5748 80.6644 -20.5204 80.6233 -20.4522C80.5412 -20.3156 80.426 -20.1238 80.2788 -19.8779C79.9846 -19.3863 79.5626 -18.6788 79.0223 -17.7666C77.942 -15.9424 76.3879 -13.2983 74.436 -9.92469C70.5339 -3.18021 65.0326 6.49667 58.542 18.3817C45.5916 42.0957 28.5565 74.8686 12.4046 110.842C-3.65738 146.615 -19.3359 186.628 -29.057 224.62C-38.3738 261.032 -44.0715 302.332 -33.154 337.011L43.154 312.989ZM187.983 309.843C160.257 377.558 72.1987 374.054 47.2867 323.359L-24.5126 358.641C33.1323 475.948 210.156 466.818 262.017 340.157L187.983 309.843ZM47.2867 323.359C45.7237 320.178 44.3312 316.728 43.154 312.989L-33.154 337.011C-30.7783 344.558 -27.8866 351.775 -24.5126 358.641L47.2867 323.359ZM115 0C81.1637 21.3331 81.1615 21.3296 81.1597 21.3267C81.1596 21.3267 81.1583 21.3245 81.1582 21.3244C81.1581 21.3242 81.1596 21.3267 81.1629 21.3318C81.1694 21.3421 81.1825 21.3631 81.2023 21.3946C81.2419 21.4577 81.3079 21.5629 81.3994 21.7094C81.5825 22.0024 81.8678 22.4604 82.2485 23.0756C83.0102 24.3062 84.1532 26.1652 85.6243 28.5919C88.5674 33.447 92.8167 40.5632 97.9456 49.456C108.222 67.2742 121.936 92.0607 135.723 119.972C164.344 177.916 189.467 241.939 191 285.41L270.95 282.59C268.746 220.081 235.881 142.104 207.45 84.5429C192.71 54.7019 178.13 28.3595 167.246 9.48714C161.794 0.0345932 157.245 -7.58495 154.036 -12.8793C152.431 -15.5274 151.159 -17.5965 150.274 -19.0254C149.832 -19.7398 149.487 -20.2945 149.245 -20.6816C149.124 -20.8752 149.029 -21.0269 148.96 -21.1358C148.926 -21.1902 148.899 -21.234 148.878 -21.2669C148.868 -21.2834 148.859 -21.2971 148.852 -21.3082C148.849 -21.3137 148.845 -21.3199 148.843 -21.3227C148.839 -21.3282 148.836 -21.3331 115 0ZM191 285.41C191.421 297.371 189.895 305.172 187.983 309.843L262.017 340.157C269.618 321.594 271.618 301.545 270.95 282.59L191 285.41Z" fill="#155F75" mask="url(#path-1-inside-1_1_11)"/>
</svg>
